# xmcd CD database file
#
# Track frame offsets:
#	150
#	14980
#	34932
#	47397
#	62317
#	72527
#	88785
#	104495
#	119992
#	130840
#	140770
#	173050
#	185537
#	200357
#
# Disc length: 2837 seconds
#
# Revision: 9
# Processed by: cddbd v1.5.2PL0 Copyright (c) Steve Scherf et al.
# Submitted via: CDex 1.70beta2
#
DISCID=d60b130e
DTITLE=the stranglers - NO MORE HEROS
DYEAR=1977
DGENRE=Punk Rock
TTITLE0=I Feel Like A Wog
TTITLE1=Bitching
TTITLE2=Dead Ringer
TTITLE3=Dagenham Dave
TTITLE4=Bring On The Nubiles
TTITLE5=Something Better Change
TTITLE6=No More Heroes
TTITLE7=Peasant In The Big Shitty
TTITLE8=Burning Up Time
TTITLE9=English Towns
TTITLE10=School Mam
TTITLE11=Straighten Out [Bonus Track]
TTITLE12=Five Minutes [Bonus Track]
TTITLE13=Rok It To The Moon [Bonus Track]
EXTD=YEAR: 1977
EXTT0=
EXTT1=
EXTT2=
EXTT3=
EXTT4=
EXTT5=
EXTT6=
EXTT7=
EXTT8=
EXTT9=
EXTT10=
EXTT11=
EXTT12=
EXTT13=
PLAYORDER=
